<svg width="30" height="25" viewBox="0 0 19 22" fill="none" xmlns="http://www.w3.org/2000/svg">
<path d="M2.23096 4.07715L3.19249 19.4617C3.23817 20.3507 3.8848 21.0002 4.73095 21.0002H13.5771C14.4266 21.0002 15.0612 20.3507 15.1156 19.4617L16.0771 4.07715" stroke="#FF4D4D" stroke-linecap="round" stroke-linejoin="round"/>
<path d="M0.692383 4.07715H17.6154H0.692383Z" fill="black"/>
<path d="M0.692383 4.07715H17.6154" stroke="#FF4D4D" stroke-miterlimit="10" stroke-linecap="round"/>
<path d="M6.077 4.07692V2.15385C6.07655 2.0022 6.1061 1.85196 6.16392 1.71177C6.22175 1.57158 6.30673 1.4442 6.41396 1.33697C6.52119 1.22973 6.64857 1.14476 6.78876 1.08693C6.92895 1.0291 7.07919 0.999561 7.23084 1H11.077C11.2286 0.999561 11.3789 1.0291 11.5191 1.08693C11.6593 1.14476 11.7866 1.22973 11.8939 1.33697C12.0011 1.4442 12.0861 1.57158 12.1439 1.71177C12.2017 1.85196 12.2313 2.0022 12.2308 2.15385V4.07692M9.15392 7.15384V17.9231M5.69238 7.15384L6.077 17.9231M12.6155 7.15384L12.2308 17.9231" stroke="#FF4D4D" stroke-linecap="round" stroke-linejoin="round"/>
</svg>
