<svg width="20" height="20" viewBox="0 0 17 17" fill="none" xmlns="http://www.w3.org/2000/svg">
<path d="M6.14737 4.93829L3.67094 2.47643C3.00085 3.13195 3.00085 4.20993 3.67094 4.88002L4.93829 6.14737H1.6898C0.757496 6.14737 0 6.90486 0 7.83717H7.03597C7.47298 7.83717 7.83717 7.47298 7.83717 7.03597V0C6.90486 0 6.14737 0.757496 6.1328 1.6898V4.93829H6.14737Z" fill="#D1EF69"/>
<path d="M4.93829 10.8529L3.67094 12.1202C3.00085 12.7758 3.00085 13.8537 3.67094 14.5238L6.1328 12.062V15.2959C6.1328 16.2282 6.8903 16.9857 7.8226 17.0003V9.96428C7.8226 9.52727 7.45842 9.16309 7.0214 9.16309H0C0 10.0954 0.757496 10.8529 1.6898 10.8529H4.93829Z" fill="#D1EF69"/>
<path d="M10.8382 12.0619L13.3001 14.5237C13.9702 13.8682 13.9702 12.7902 13.3001 12.1202L12.0327 10.8528H15.2812C16.2135 10.8528 16.971 10.0953 16.9856 9.14844H9.94964C9.49805 9.14844 9.14844 9.51262 9.14844 9.94964V16.9856C10.0807 16.9856 10.8528 16.2281 10.8528 15.2812V12.0619H10.8382Z" fill="#D1EF69"/>
<path d="M12.0327 6.14737L13.3 4.88002C13.9701 4.22449 13.9701 3.14652 13.3 2.47643L10.8382 4.93829V1.6898C10.8382 0.757496 10.0807 0 9.13379 0V7.03597C9.13379 7.48755 9.49797 7.83717 9.93499 7.83717H16.971C16.971 6.90486 16.2135 6.14737 15.2666 6.1328H12.0327V6.14737Z" fill="#D1EF69"/>
</svg>
