<svg width="39" height="40" viewBox="0 0 39 40" fill="none" xmlns="http://www.w3.org/2000/svg">
<path d="M14.1149 11.3388L8.42882 5.68611C6.89023 7.19126 6.89023 9.66639 8.42882 11.205L11.3388 14.1149H3.87993C1.73928 14.1149 0 15.8542 0 17.9949H16.1552C17.1587 17.9949 17.9949 17.1587 17.9949 16.1552V0C15.8542 0 14.1149 1.73928 14.0815 3.87993V11.3388H14.1149Z" fill="#1A191E"/>
<path d="M11.3388 24.918L8.42882 27.828C6.89023 29.3331 6.89023 31.8082 8.42882 33.3468L14.0815 27.6942V35.1196C14.0815 37.2602 15.8208 38.9995 17.9614 39.0329V22.8777C17.9614 21.8743 17.1252 21.0381 16.1218 21.0381H0C0 23.1787 1.73928 24.918 3.87993 24.918H11.3388Z" fill="#1A191E"/>
<path d="M24.8853 27.6944L30.538 33.3471C32.0766 31.8419 32.0766 29.3668 30.538 27.8282L27.628 24.9183H35.0869C37.2275 24.9183 38.9668 23.179 39.0002 21.0049H22.845C21.8081 21.0049 21.0054 21.8411 21.0054 22.8445V38.9997C23.146 38.9997 24.9188 37.2605 24.9188 35.0864V27.6944H24.8853Z" fill="#1A191E"/>
<path d="M27.6278 14.1149L30.5377 11.205C32.0763 9.69983 32.0763 7.2247 30.5377 5.68611L24.8851 11.3388V3.87993C24.8851 1.73928 23.1458 0 20.9717 0V16.1552C20.9717 17.1921 21.8079 17.9949 22.8113 17.9949H38.9665C38.9665 15.8542 37.2273 14.1149 35.0532 14.0815H27.6278V14.1149Z" fill="#1A191E"/>
</svg>
