<svg width="30" height="30" viewBox="0 0 21 24" fill="none" xmlns="http://www.w3.org/2000/svg">
  <path d="M10.5 1V23M13.3266 3.35714C12.4736 3.87274 11.4961 4.14445 10.5 4.14286C9.50395 4.14445 8.52644 3.87274 7.67336 3.35714M7.67336 20.6429C8.52707 20.1287 9.50416 19.8571 10.5 19.8571C11.4958 19.8571 12.4729 20.1287 13.3266 20.6429M20 6.5L1 17.5M19.3771 10.1339C18.506 9.64953 17.7828 8.93659 17.285 8.07152C16.7871 7.20645 16.5334 6.22185 16.5509 5.22321M1.62292 13.8661C2.49397 14.3505 3.21717 15.0634 3.71502 15.9285C4.21287 16.7935 4.46662 17.7782 4.44907 18.7768M1 6.5L20 17.5M1.62292 10.1339C2.49397 9.64953 3.21717 8.93659 3.71502 8.07152C4.21287 7.20645 4.46662 6.22185 4.44907 5.22321M19.3771 13.8661C18.506 14.3505 17.7828 15.0634 17.285 15.9285C16.7871 16.7935 16.5334 17.7782 16.5509 18.7768" 
    stroke="#8D8D8D" stroke-linecap="round" stroke-linejoin="round" stroke-width="2"/>
</svg>
