<svg width="156" height="36" viewBox="0 0 156 36" fill="none" xmlns="http://www.w3.org/2000/svg">
<path d="M12.6673 11.0273L7.56433 5.95882C6.18354 7.30842 6.18354 9.52775 7.56433 10.9073L10.1758 13.5166H3.48199C1.56089 13.5166 0 15.0761 0 16.9955H14.4983C15.3988 16.9955 16.1492 16.2457 16.1492 15.346V0.860352C14.2281 0.860352 12.6673 2.41988 12.6372 4.33931V11.0273H12.6673Z" fill="white"/>
<path d="M10.1758 23.2045L7.56433 25.8138C6.18354 27.1634 6.18354 29.3827 7.56433 30.7623L12.6372 25.6938V32.3518C12.6372 34.2712 14.1981 35.8308 16.1192 35.8607V21.3751C16.1192 20.4754 15.3688 19.7256 14.4683 19.7256H0C0 21.645 1.56089 23.2045 3.48199 23.2045H10.1758Z" fill="white"/>
<path d="M22.3326 25.6925L27.4055 30.761C28.7863 29.4114 28.7863 27.1921 27.4055 25.8125L24.794 23.2033H31.4878C33.4089 23.2033 34.9698 21.6438 34.9998 19.6943H20.5015C19.571 19.6943 18.8506 20.4441 18.8506 21.3438V35.8295C20.7717 35.8295 22.3626 34.27 22.3626 32.3205V25.6925H22.3326Z" fill="white"/>
<path d="M24.7942 13.5166L27.4057 10.9073C28.7865 9.55774 28.7865 7.33841 27.4057 5.95882L22.3328 11.0273V4.33931C22.3328 2.41988 20.7719 0.860352 18.8208 0.860352V15.346C18.8208 16.2757 19.5712 16.9955 20.4717 16.9955H34.97C34.97 15.0761 33.4092 13.5166 31.458 13.4866H24.7942V13.5166Z" fill="white"/>
<path d="M66.2642 12V13.5625H58.7642V27H56.8892V13.5625H49.3892V12H66.2642ZM78.4517 19.4121C78.4517 18.9434 78.4159 18.556 78.3442 18.25C78.2791 17.9375 78.1196 17.6901 77.8657 17.5078C77.6118 17.319 77.2342 17.1888 76.7329 17.1172C76.2381 17.0391 75.561 17 74.7017 17C73.8618 17 73.1782 17.0749 72.6509 17.2246C72.1235 17.3678 71.7101 17.5729 71.4106 17.8398C71.1112 18.1068 70.9061 18.4258 70.7954 18.7969C70.6912 19.168 70.6392 19.5814 70.6392 20.0371V27H68.7642V15.75H70.6392V17.5371C70.7043 17.3353 70.8247 17.1139 71.0005 16.873C71.1763 16.6257 71.4432 16.3978 71.8013 16.1895C72.1593 15.9746 72.6216 15.7956 73.188 15.6523C73.7609 15.5091 74.4738 15.4375 75.3267 15.4375C76.3032 15.4375 77.0975 15.5254 77.7095 15.7012C78.3215 15.8704 78.7967 16.1243 79.1353 16.4629C79.4803 16.7949 79.7114 17.2083 79.8286 17.7031C79.9523 18.1979 80.0142 18.7676 80.0142 19.4121H78.4517ZM92.4653 25.457C92.4458 25.5352 92.2993 25.7305 92.0259 26.043C91.8306 26.2773 91.5701 26.4857 91.2446 26.668C90.9191 26.8438 90.4829 26.9805 89.936 27.0781C89.3957 27.1823 88.6828 27.2344 87.7974 27.2344C86.619 27.2344 85.6131 27.1725 84.7798 27.0488C83.9465 26.9316 83.2661 26.7493 82.7388 26.502C82.2114 26.248 81.8241 25.9258 81.5767 25.5352C81.3358 25.1445 81.2153 24.679 81.2153 24.1387C81.2153 23.5723 81.2804 23.0938 81.4106 22.7031C81.5474 22.306 81.7427 21.974 81.9966 21.707C82.257 21.4401 82.5695 21.2318 82.9341 21.082C83.2987 20.9323 83.7121 20.8184 84.1743 20.7402C84.6431 20.6621 85.1541 20.6133 85.7075 20.5938C86.2609 20.5742 86.8501 20.5645 87.4751 20.5645C88.367 20.5645 89.1125 20.6035 89.7114 20.6816C90.3104 20.7533 90.7987 20.8477 91.1763 20.9648C91.5604 21.0755 91.8501 21.196 92.0454 21.3262C92.2407 21.4564 92.3807 21.5768 92.4653 21.6875C92.4653 20.9583 92.4328 20.3366 92.3677 19.8223C92.3091 19.3079 92.2082 18.8783 92.0649 18.5332C91.9282 18.1882 91.7492 17.9147 91.5278 17.7129C91.3065 17.5046 91.033 17.3483 90.7075 17.2441C90.3885 17.14 90.0142 17.0749 89.5845 17.0488C89.1548 17.0163 88.6632 17 88.1099 17C87.2505 17 86.5376 17.0228 85.9712 17.0684C85.4048 17.1074 84.9556 17.1888 84.6235 17.3125C84.2915 17.4362 84.0571 17.6087 83.9204 17.8301C83.7837 18.0449 83.7153 18.3281 83.7153 18.6797H81.8403C81.8403 18.0872 81.9445 17.5859 82.1528 17.1758C82.3677 16.7656 82.7192 16.4336 83.2075 16.1797C83.7023 15.9193 84.3501 15.7305 85.1509 15.6133C85.9517 15.4961 86.938 15.4375 88.1099 15.4375C89.2557 15.4375 90.2257 15.5319 91.02 15.7207C91.8143 15.9095 92.4556 16.2415 92.9438 16.7168C93.4386 17.1921 93.7935 17.8333 94.0083 18.6406C94.2297 19.4414 94.3403 20.457 94.3403 21.6875V27H92.4653V25.457ZM88.1099 25.75C88.9367 25.75 89.6268 25.7109 90.1802 25.6328C90.7401 25.5547 91.1893 25.4375 91.5278 25.2812C91.8664 25.125 92.1073 24.9297 92.2505 24.6953C92.3937 24.4609 92.4653 24.1875 92.4653 23.875C92.4653 23.5625 92.3807 23.2988 92.2114 23.084C92.0487 22.8626 91.772 22.6836 91.3813 22.5469C90.9972 22.4102 90.4862 22.3125 89.8481 22.2539C89.2101 22.1888 88.4224 22.1562 87.4849 22.1562C86.5474 22.1562 85.7889 22.1725 85.2095 22.2051C84.6366 22.2376 84.1938 22.3125 83.8813 22.4297C83.5688 22.5469 83.3573 22.7194 83.2466 22.9473C83.1424 23.1751 83.0903 23.4844 83.0903 23.875C83.0903 24.2656 83.1457 24.5846 83.2563 24.832C83.3735 25.0729 83.6079 25.2617 83.9595 25.3984C84.311 25.5352 84.8156 25.6296 85.4731 25.6816C86.1372 25.7272 87.0161 25.75 88.1099 25.75ZM103.413 27.2148C102.163 27.2148 101.101 27.1237 100.229 26.9414C99.3566 26.7591 98.647 26.4466 98.1001 26.0039C97.5532 25.5612 97.1561 24.9655 96.9087 24.2168C96.6613 23.4681 96.5376 22.5273 96.5376 21.3945C96.5376 20.2227 96.6613 19.2526 96.9087 18.4844C97.1561 17.7161 97.5532 17.1074 98.1001 16.6582C98.647 16.209 99.3566 15.8932 100.229 15.7109C101.101 15.5286 102.163 15.4375 103.413 15.4375C104.298 15.4375 105.04 15.4831 105.639 15.5742C106.238 15.6654 106.726 15.7793 107.104 15.916C107.488 16.0527 107.778 16.2025 107.973 16.3652C108.175 16.5215 108.321 16.668 108.413 16.8047V12H110.288V27H108.413V25.3301C108.413 25.3301 108.256 25.5156 107.944 25.8867C107.67 26.1536 107.368 26.3685 107.036 26.5312C106.704 26.694 106.238 26.8503 105.639 27C105.04 27.1432 104.298 27.2148 103.413 27.2148ZM103.413 25.75C104.038 25.75 104.594 25.737 105.083 25.7109C105.571 25.6784 106 25.6133 106.372 25.5156C106.743 25.418 107.055 25.2747 107.309 25.0859C107.569 24.8906 107.781 24.6335 107.944 24.3145C108.107 23.9954 108.224 23.6016 108.295 23.1328C108.374 22.6576 108.413 22.0879 108.413 21.4238C108.413 20.7337 108.374 20.1478 108.295 19.666C108.224 19.1777 108.107 18.7708 107.944 18.4453C107.781 18.1133 107.569 17.8529 107.309 17.6641C107.055 17.4753 106.743 17.332 106.372 17.2344C106 17.1302 105.571 17.0651 105.083 17.0391C104.594 17.013 104.038 17 103.413 17C102.683 17 102.052 17.0228 101.518 17.0684C100.991 17.1139 100.542 17.1953 100.17 17.3125C99.7993 17.4297 99.4966 17.5924 99.2622 17.8008C99.0343 18.0091 98.8553 18.276 98.7251 18.6016C98.6014 18.9271 98.5168 19.321 98.4712 19.7832C98.4321 20.2389 98.4126 20.776 98.4126 21.3945C98.4126 22.0065 98.4321 22.5404 98.4712 22.9961C98.5168 23.4453 98.6014 23.8327 98.7251 24.1582C98.8553 24.4772 99.0343 24.7409 99.2622 24.9492C99.4966 25.1576 99.7993 25.3203 100.17 25.4375C100.542 25.5547 100.991 25.6361 101.518 25.6816C102.052 25.7272 102.683 25.75 103.413 25.75ZM119.35 27.2148C118.1 27.2148 117.039 27.1302 116.167 26.9609C115.294 26.7852 114.584 26.4857 114.038 26.0625C113.491 25.6393 113.094 25.0729 112.846 24.3633C112.599 23.6536 112.475 22.7617 112.475 21.6875C112.475 20.457 112.599 19.4414 112.846 18.6406C113.094 17.8333 113.491 17.1921 114.038 16.7168C114.584 16.2415 115.294 15.9095 116.167 15.7207C117.039 15.5319 118.1 15.4375 119.35 15.4375C120.242 15.4375 121.014 15.5026 121.665 15.6328C122.322 15.763 122.882 15.9518 123.344 16.1992C123.813 16.4466 124.191 16.7461 124.477 17.0977C124.77 17.4492 124.998 17.8203 125.161 18.2109C125.33 18.5951 125.444 19.0475 125.502 19.5684C125.568 20.0892 125.6 20.6393 125.6 21.2188L125.444 21.8438H114.35C114.35 22.7031 114.435 23.4095 114.604 23.9629C114.773 24.5098 115.053 24.9102 115.444 25.1641C115.834 25.418 116.349 25.5807 116.987 25.6523C117.625 25.7174 118.413 25.75 119.35 25.75C120.209 25.75 120.919 25.7272 121.479 25.6816C122.045 25.6296 122.495 25.5352 122.827 25.3984C123.159 25.2617 123.39 25.0729 123.52 24.832C123.657 24.5846 123.725 24.2656 123.725 23.875H125.6C125.6 24.4805 125.493 24.998 125.278 25.4277C125.069 25.8509 124.721 26.196 124.233 26.4629C123.745 26.7233 123.1 26.9121 122.299 27.0293C121.505 27.153 120.522 27.2148 119.35 27.2148ZM119.35 17C118.725 17 118.165 17.013 117.67 17.0391C117.182 17.0651 116.752 17.1237 116.381 17.2148C116.017 17.2995 115.704 17.4264 115.444 17.5957C115.183 17.7585 114.972 17.9538 114.809 18.1816C114.653 18.403 114.536 18.7188 114.458 19.1289C114.386 19.5326 114.35 20.0208 114.35 20.5938H123.725C123.725 19.832 123.644 19.2363 123.481 18.8066C123.318 18.3704 123.061 18.0124 122.709 17.7324C122.358 17.4525 121.905 17.2604 121.352 17.1562C120.799 17.0521 120.131 17 119.35 17ZM137.788 19.4121C137.788 18.9434 137.752 18.556 137.68 18.25C137.615 17.9375 137.456 17.6901 137.202 17.5078C136.948 17.319 136.57 17.1888 136.069 17.1172C135.574 17.0391 134.897 17 134.038 17C133.198 17 132.514 17.0749 131.987 17.2246C131.459 17.3678 131.046 17.5729 130.747 17.8398C130.447 18.1068 130.242 18.4258 130.131 18.7969C130.027 19.168 129.975 19.5814 129.975 20.0371V27H128.1V15.75H129.975V17.5371C130.04 17.3353 130.161 17.1139 130.336 16.873C130.512 16.6257 130.779 16.3978 131.137 16.1895C131.495 15.9746 131.958 15.7956 132.524 15.6523C133.097 15.5091 133.81 15.4375 134.663 15.4375C135.639 15.4375 136.433 15.5254 137.045 15.7012C137.657 15.8704 138.133 16.1243 138.471 16.4629C138.816 16.7949 139.047 17.2083 139.165 17.7031C139.288 18.1979 139.35 18.7676 139.35 19.4121H137.788ZM151.801 25.457C151.782 25.5352 151.635 25.7305 151.362 26.043C151.167 26.2773 150.906 26.4857 150.581 26.668C150.255 26.8438 149.819 26.9805 149.272 27.0781C148.732 27.1823 148.019 27.2344 147.133 27.2344C145.955 27.2344 144.949 27.1725 144.116 27.0488C143.282 26.9316 142.602 26.7493 142.075 26.502C141.547 26.248 141.16 25.9258 140.913 25.5352C140.672 25.1445 140.551 24.679 140.551 24.1387C140.551 23.5723 140.616 23.0938 140.747 22.7031C140.883 22.306 141.079 21.974 141.333 21.707C141.593 21.4401 141.905 21.2318 142.27 21.082C142.635 20.9323 143.048 20.8184 143.51 20.7402C143.979 20.6621 144.49 20.6133 145.043 20.5938C145.597 20.5742 146.186 20.5645 146.811 20.5645C147.703 20.5645 148.448 20.6035 149.047 20.6816C149.646 20.7533 150.135 20.8477 150.512 20.9648C150.896 21.0755 151.186 21.196 151.381 21.3262C151.577 21.4564 151.717 21.5768 151.801 21.6875C151.801 20.9583 151.769 20.3366 151.704 19.8223C151.645 19.3079 151.544 18.8783 151.401 18.5332C151.264 18.1882 151.085 17.9147 150.864 17.7129C150.642 17.5046 150.369 17.3483 150.043 17.2441C149.724 17.14 149.35 17.0749 148.92 17.0488C148.491 17.0163 147.999 17 147.446 17C146.586 17 145.874 17.0228 145.307 17.0684C144.741 17.1074 144.292 17.1888 143.959 17.3125C143.627 17.4362 143.393 17.6087 143.256 17.8301C143.12 18.0449 143.051 18.3281 143.051 18.6797H141.176C141.176 18.0872 141.28 17.5859 141.489 17.1758C141.704 16.7656 142.055 16.4336 142.543 16.1797C143.038 15.9193 143.686 15.7305 144.487 15.6133C145.288 15.4961 146.274 15.4375 147.446 15.4375C148.592 15.4375 149.562 15.5319 150.356 15.7207C151.15 15.9095 151.792 16.2415 152.28 16.7168C152.775 17.1921 153.129 17.8333 153.344 18.6406C153.566 19.4414 153.676 20.457 153.676 21.6875V27H151.801V25.457ZM147.446 25.75C148.273 25.75 148.963 25.7109 149.516 25.6328C150.076 25.5547 150.525 25.4375 150.864 25.2812C151.202 25.125 151.443 24.9297 151.586 24.6953C151.73 24.4609 151.801 24.1875 151.801 23.875C151.801 23.5625 151.717 23.2988 151.547 23.084C151.385 22.8626 151.108 22.6836 150.717 22.5469C150.333 22.4102 149.822 22.3125 149.184 22.2539C148.546 22.1888 147.758 22.1562 146.821 22.1562C145.883 22.1562 145.125 22.1725 144.545 22.2051C143.972 22.2376 143.53 22.3125 143.217 22.4297C142.905 22.5469 142.693 22.7194 142.583 22.9473C142.478 23.1751 142.426 23.4844 142.426 23.875C142.426 24.2656 142.482 24.5846 142.592 24.832C142.709 25.0729 142.944 25.2617 143.295 25.3984C143.647 25.5352 144.152 25.6296 144.809 25.6816C145.473 25.7272 146.352 25.75 147.446 25.75Z" fill="white"/>
</svg>
