<svg height="17" viewBox="0 0 40 28" fill="none" xmlns="http://www.w3.org/2000/svg">
<path d="M39.329 28H35.329C35.089 28 35.009 27.8 35.009 27.68L31.929 16.64V27.68C31.929 27.92 31.809 28 31.609 28H28.009C27.769 28 27.689 27.8 27.689 27.68V0.320001C27.689 0.120001 27.809 0 28.009 0H35.209C38.169 0 39.249 1.44 39.249 3.88V12.08C39.249 14.32 38.529 15.72 36.129 15.96L39.649 27.68C39.689 27.92 39.529 28 39.329 28ZM34.809 4.04H31.929V11.96H34.809C34.969 11.96 35.009 11.92 35.009 11.76V4.24C35.009 4.08 34.969 4.04 34.809 4.04Z" fill="#8D8D8D"/>
<path d="M16.9452 0H21.0652C21.3052 0 21.3852 0.2 21.3852 0.320001L25.9052 27.68C25.9052 27.88 25.7852 28 25.5852 28H21.8252C21.6652 28 21.5052 27.88 21.5052 27.68L20.5852 21H17.2652L16.2652 27.68C16.2652 27.88 16.1452 28 15.9452 28H12.1852C11.9852 28 11.8652 27.88 11.8652 27.68L16.6252 0.320001C16.6252 0.2 16.7052 0 16.9452 0ZM19.0252 9.28L17.8652 17H20.0652L19.0252 9.28Z" fill="#8D8D8D"/>
<path d="M11.24 4.56L4.4 24H10.96C11.12 24 11.24 24.12 11.24 24.28V27.68C11.24 27.92 11.12 28 10.96 28H0.32C0.08 28 0 27.8 0 27.68V24.52C0 24.28 0.04 23.88 0.12 23.68L7.08 4H0.56C0.32 4 0.24 3.84 0.24 3.72V0.320001C0.24 0.120001 0.36 0 0.56 0H11.16C11.36 0 11.48 0.120001 11.48 0.320001V3.44C11.48 3.8 11.4 4.2 11.24 4.56Z" fill="#8D8D8D"/>
</svg>