<svg width="18" height="17" viewBox="0 0 18 17" fill="none" xmlns="http://www.w3.org/2000/svg">
<path d="M0 17V0H8.51646C10.4298 0 12.0624 0.234762 13.4142 0.704287C14.766 1.17381 15.8059 1.85381 16.5338 2.74429C17.2617 3.63476 17.6256 4.69524 17.6256 5.92571C17.6256 7.15619 17.2617 8.21667 16.5338 9.10714C15.8059 9.98143 14.766 10.6533 13.4142 11.1229C12.0624 11.5924 10.4298 11.8271 8.51646 11.8271H1.71577L3.11958 10.71V17H0ZM14.5997 17L9.04679 10.8314H12.3847L18 17H14.5997ZM3.11958 10.9529L1.71577 9.76286H8.42288C10.4194 9.76286 11.9272 9.43095 12.9463 8.76714C13.9861 8.08714 14.5061 7.14 14.5061 5.92571C14.5061 4.71143 13.9861 3.77238 12.9463 3.10857C11.9272 2.44476 10.4194 2.11286 8.42288 2.11286H1.71577L3.11958 0.898572V10.9529Z" fill="#8D8D8D"/>
</svg>
